<?xml version="1.0" encoding="utf-8"?>
<!-- Generator: Adobe Illustrator 26.2.0, SVG Export Plug-In . SVG Version: 6.00 Build 0)  -->
<svg version="1.1" id="Layer_1" xmlns="http://www.w3.org/2000/svg" xmlns:xlink="http://www.w3.org/1999/xlink" x="0px" y="0px"
	 viewBox="0 0 90.06 20.49" style="enable-background:new 0 0 90.06 20.49;" xml:space="preserve">
<g>
	<g>
		<path d="M14.11,4.14c0,0.11-0.14,0.16-0.41,0.15h-0.36h-0.29c-0.17,0-0.28,0.03-0.31,0.09c-0.03,0.06-0.05,0.24-0.05,0.55v9.42
			c0,0.58-0.01,0.92-0.02,1.01c-0.01,0.1-0.04,0.15-0.1,0.15c-0.07,0-0.14-0.06-0.23-0.18l-2.09-3.07c-1.21-1.79-2.69-4.02-4.43-6.7
			v9.18c0.01,0.14,0.09,0.23,0.25,0.27s0.52,0.06,1.11,0.07c0.14,0,0.22,0.04,0.22,0.13c0,0.11-0.14,0.16-0.43,0.16
			c-0.1,0-0.41-0.02-0.93-0.05c-0.18-0.01-0.34-0.02-0.51-0.02c0.01,0-0.08,0.01-0.29,0.03c-0.2,0.02-0.51,0.03-0.93,0.03H4.15
			c-0.25,0-0.38-0.05-0.38-0.15c0-0.1,0.11-0.15,0.33-0.15c0.64-0.01,1.02-0.05,1.12-0.12c0.1-0.07,0.16-0.3,0.16-0.7V6.18
			c0-0.91-0.19-1.48-0.56-1.71C4.64,4.36,4.33,4.31,3.89,4.31c-0.28,0-0.43-0.06-0.43-0.17c0-0.1,0.08-0.15,0.25-0.15
			c0.22,0,0.5,0.01,0.84,0.03c0.34,0.02,0.52,0.03,0.54,0.03c0.03,0,0.19-0.01,0.46-0.02c0.36,0,0.71-0.02,1.05-0.05l5.65,8.44V5.13
			c0-0.34-0.01-0.54-0.02-0.61c-0.01-0.07-0.05-0.13-0.13-0.16c-0.08-0.04-0.34-0.06-0.79-0.06c-0.39,0-0.59-0.05-0.59-0.15
			c0-0.11,0.13-0.16,0.39-0.16h0.57c0.14,0,0.29,0,0.46,0c0.17,0,0.28,0,0.31,0c0.01,0,0.11,0,0.29,0c0.17,0,0.34,0,0.49,0h0.51
			C13.99,3.98,14.11,4.03,14.11,4.14z"/>
		<path d="M23.45,14.81c0,0.08-0.12,0.12-0.36,0.13c-0.85,0.05-1.6,0.24-2.25,0.56c-0.04,0.02-0.08,0.03-0.11,0.03
			c-0.07,0-0.1-0.04-0.1-0.13v-0.92c-0.5,0.7-1.2,1.05-2.1,1.05c-0.8,0-1.38-0.23-1.72-0.7c-0.14-0.2-0.23-0.37-0.25-0.54
			c-0.03-0.16-0.04-0.6-0.04-1.32V9.25c0-0.38-0.02-0.6-0.07-0.67c-0.04-0.06-0.19-0.1-0.44-0.11H15.8
			c-0.29,0.02-0.44-0.02-0.44-0.13c0-0.08,0.09-0.11,0.28-0.11c0.2,0,0.48,0.01,0.85,0.04c0.19,0.01,0.29,0.02,0.33,0.02
			c0.38,0,0.74-0.02,1.07-0.07v4.55c0,0.84,0.05,1.39,0.16,1.66c0.17,0.42,0.53,0.64,1.06,0.64c0.58,0,1-0.24,1.28-0.72
			c0.2-0.35,0.29-0.9,0.29-1.66v-2.53c0-0.37-0.02-0.65-0.05-0.83V8.79c-0.01-0.16-0.05-0.26-0.11-0.29
			c-0.06-0.03-0.18-0.04-0.37-0.04c-0.46,0.01-0.69-0.04-0.69-0.15c0-0.06,0.11-0.1,0.34-0.1h0.15c0.09,0,0.38,0,0.87,0
			c0.66,0,1.06,0,1.21,0v4.57c0,0.79,0.02,1.28,0.05,1.49c0.03,0.21,0.12,0.33,0.25,0.36c0.13,0.03,0.44,0.05,0.92,0.05
			C23.38,14.7,23.45,14.73,23.45,14.81z"/>
		<path d="M35.77,15.28c0,0.08-0.09,0.12-0.28,0.12c-0.02,0-0.14,0-0.35,0s-0.5,0-0.86,0c-0.03,0-0.61,0-1.74,0
			c-0.14,0-0.21-0.04-0.21-0.11c0-0.08,0.06-0.12,0.18-0.12h0.13h0.41c0.16-0.01,0.26-0.05,0.29-0.11c0.03-0.07,0.04-0.3,0.04-0.69
			v-4.07c0-0.63-0.08-1.09-0.25-1.35c-0.17-0.27-0.45-0.4-0.85-0.4c-0.28,0-0.55,0.08-0.79,0.25s-0.42,0.38-0.51,0.65
			c-0.04,0.16-0.07,0.77-0.07,1.82v3.1c0,0.36,0.01,0.57,0.02,0.62c0.03,0.13,0.13,0.2,0.29,0.2h0.47c0.14,0,0.21,0.04,0.21,0.12
			c0,0.07-0.08,0.11-0.25,0.11h-0.11c-0.11,0-0.48,0-1.11,0c-0.22,0-0.51,0-0.88,0s-0.59,0-0.66,0h-0.18c-0.13,0-0.2-0.04-0.2-0.13
			c0-0.05,0.03-0.09,0.1-0.1c0.07-0.01,0.28-0.02,0.66-0.02c0.17-0.01,0.27-0.07,0.28-0.16l0.02-0.23V10.2
			c0-0.63-0.08-1.07-0.24-1.31c-0.16-0.24-0.44-0.36-0.84-0.36c-0.4,0-0.74,0.13-1,0.38c-0.27,0.25-0.4,0.57-0.4,0.95v4.64
			c0,0.33,0.02,0.52,0.07,0.58c0.05,0.06,0.21,0.09,0.48,0.09h0.13c0.06-0.01,0.12-0.02,0.18-0.02c0.12,0,0.18,0.04,0.18,0.13
			c0,0.08-0.07,0.11-0.21,0.11h-0.16c-0.26-0.01-0.67-0.01-1.23,0h-1.61c-0.15,0-0.23-0.04-0.23-0.13c0-0.08,0.07-0.11,0.21-0.11
			c0.42,0,0.66-0.02,0.72-0.06c0.07-0.04,0.1-0.11,0.11-0.2v-4.25c0-0.82-0.02-1.3-0.05-1.44c-0.03-0.14-0.19-0.21-0.48-0.21h-0.23
			c-0.1,0-0.2,0-0.31,0c-0.14,0-0.21-0.04-0.21-0.11c0-0.07,0.02-0.1,0.07-0.11c0.05-0.01,0.23-0.03,0.53-0.05
			c0.25-0.01,0.57-0.08,0.94-0.2c0.38-0.12,0.59-0.22,0.65-0.31c0.12-0.12,0.21-0.18,0.26-0.18c0.05,0,0.09,0.04,0.1,0.13
			s0.02,0.39,0.03,0.92c0.44-0.7,1.11-1.05,2.02-1.05c0.97,0,1.56,0.37,1.77,1.1c0.43-0.73,1.11-1.1,2.05-1.1
			c0.81,0,1.36,0.29,1.64,0.87c0.15,0.31,0.23,0.81,0.23,1.52v4.05c0,0.37,0.02,0.58,0.06,0.61c0.04,0.04,0.21,0.07,0.51,0.09h0.29
			C35.71,15.16,35.77,15.2,35.77,15.28z"/>
		<path d="M43.34,13.58c0,0.11-0.08,0.3-0.25,0.58c-0.17,0.28-0.34,0.51-0.52,0.68c-0.47,0.48-1.1,0.72-1.88,0.72
			c-0.98,0-1.81-0.35-2.47-1.07c-0.66-0.71-0.99-1.59-0.99-2.64c0-1.09,0.31-2,0.94-2.74s1.41-1.1,2.35-1.1
			c0.78,0,1.43,0.23,1.95,0.68c0.52,0.45,0.8,1.04,0.83,1.75c-0.35,0.05-0.81,0.08-1.39,0.07h-1.15c-0.08,0-0.73,0.02-1.97,0.05
			c-0.05,0.36-0.08,0.7-0.08,1.03c0,1.1,0.21,1.95,0.63,2.54s1.01,0.89,1.78,0.89c0.44,0,0.79-0.1,1.05-0.29
			c0.26-0.2,0.55-0.57,0.85-1.13c0.04-0.09,0.1-0.13,0.18-0.13C43.3,13.47,43.34,13.51,43.34,13.58z M41.92,10.24
			c-0.04-1.31-0.51-1.97-1.41-1.97c-0.88,0-1.44,0.66-1.66,1.97H41.92z"/>
		<path d="M50.24,9.17c0,0.25-0.08,0.46-0.23,0.62c-0.15,0.16-0.35,0.25-0.59,0.25c-0.2,0-0.36-0.06-0.49-0.17
			c-0.13-0.11-0.2-0.26-0.2-0.43c0-0.15,0.05-0.28,0.15-0.39c0.1-0.11,0.15-0.19,0.15-0.23c0-0.16-0.12-0.25-0.36-0.25
			c-0.31,0-0.57,0.19-0.79,0.57c-0.25,0.45-0.38,1.27-0.38,2.48v3.23c0,0.13,0.05,0.21,0.14,0.24s0.37,0.05,0.84,0.07
			c0.12,0.02,0.18,0.07,0.18,0.13c0,0.08-0.07,0.11-0.21,0.11c-0.25,0-0.49,0-0.71,0s-0.63,0-1.25,0c-0.32,0-0.55,0-0.69,0
			c-0.14,0-0.32,0-0.54,0c-0.17,0-0.26-0.03-0.26-0.1s0.07-0.1,0.21-0.1h0.23c0.37,0,0.59-0.04,0.66-0.13
			c0.02-0.04,0.03-0.25,0.03-0.61V9.93c0-0.6-0.09-0.95-0.27-1.05c-0.18-0.09-0.47-0.15-0.86-0.16c-0.13,0-0.2-0.04-0.2-0.11
			c0-0.08,0.05-0.11,0.16-0.11h0.11c0.16,0,0.33,0.01,0.49,0.02c0.16,0.02,0.23,0.02,0.21,0.02c0.4,0,0.85-0.11,1.34-0.34l0.21-0.1
			l0.13-0.05c0.04,0.26,0.07,0.52,0.07,0.79v0.33c0.35-0.74,0.84-1.11,1.47-1.11c0.35,0,0.64,0.11,0.87,0.32S50.24,8.86,50.24,9.17z
			"/>
		<path d="M58.58,11.83c0,1.06-0.32,1.95-0.97,2.66s-1.45,1.07-2.41,1.07c-0.99,0-1.82-0.36-2.49-1.07c-0.67-0.72-1-1.6-1-2.66
			c0-1.09,0.33-2,0.98-2.72c0.65-0.72,1.46-1.08,2.43-1.08c0.98,0,1.81,0.36,2.47,1.09C58.25,9.84,58.58,10.75,58.58,11.83z
			 M57.09,11.81c0-1.2-0.19-2.14-0.56-2.8c-0.27-0.49-0.73-0.74-1.38-0.74c-0.61,0-1.09,0.31-1.43,0.94
			c-0.34,0.63-0.52,1.5-0.52,2.61c0,1.1,0.18,1.96,0.55,2.58s0.88,0.93,1.53,0.93c0.5,0,0.87-0.19,1.11-0.57
			C56.86,14.04,57.09,13.06,57.09,11.81z"/>
		<path d="M68.12,12.29c0,0.03-0.01,0.12-0.03,0.26c-0.05,0.36-0.14,1.25-0.26,2.67l-0.02,0.2c-1.12-0.05-2.41-0.08-3.85-0.08
			c-0.78,0-1.5,0.01-2.18,0.04c-0.68,0.03-0.97,0.04-0.88,0.04c-0.29,0-0.44-0.05-0.44-0.16c0-0.09,0.28-0.36,0.85-0.82
			c1.37-1.12,2.34-2.02,2.92-2.72c1-1.21,1.51-2.64,1.51-4.28c0-1.1-0.23-1.94-0.69-2.51c-0.35-0.44-0.84-0.66-1.48-0.66
			c-0.62,0-1.11,0.19-1.47,0.57c-0.28,0.29-0.43,0.59-0.43,0.88c0,0.19,0.15,0.28,0.44,0.29c0.76,0.03,1.15,0.37,1.15,1
			c0,0.6-0.32,0.9-0.95,0.9c-0.4,0-0.73-0.12-0.97-0.38c-0.24-0.25-0.36-0.6-0.36-1.03c0-0.81,0.28-1.46,0.85-1.95
			c0.57-0.49,1.32-0.74,2.25-0.74c0.93,0,1.7,0.29,2.31,0.88c0.71,0.69,1.07,1.58,1.07,2.69c0,1.21-0.4,2.33-1.21,3.35
			c-0.81,1.02-2.17,2.13-4.08,3.33c0.72-0.02,1.63-0.03,2.72-0.03c0.91,0,1.48-0.01,1.72-0.04s0.45-0.1,0.64-0.2
			c0.15-0.1,0.28-0.46,0.39-1.1c0.08-0.44,0.19-0.66,0.33-0.66C68.06,12.04,68.12,12.12,68.12,12.29z"/>
		<path d="M76.51,12.17c0,0.91-0.37,1.68-1.1,2.33c-0.81,0.71-1.84,1.07-3.1,1.07c-1.03,0-1.78-0.24-2.26-0.72
			c-0.31-0.31-0.46-0.66-0.46-1.05c0-0.34,0.11-0.61,0.32-0.81c0.21-0.2,0.5-0.3,0.86-0.3c0.28,0,0.52,0.08,0.71,0.25
			c0.19,0.17,0.28,0.37,0.28,0.63c0,0.39-0.26,0.69-0.77,0.91c-0.21,0.09-0.31,0.18-0.31,0.26c0,0.14,0.14,0.27,0.43,0.39
			c0.28,0.12,0.59,0.17,0.93,0.17c0.83,0,1.5-0.28,2.02-0.85c0.52-0.57,0.78-1.31,0.78-2.23c0-1.85-0.83-2.78-2.49-2.78
			c-0.16,0-0.28,0-0.36,0h-0.12c-0.14,0-0.21-0.05-0.21-0.15c0-0.08,0.13-0.14,0.39-0.18c0.76-0.11,1.35-0.39,1.77-0.84
			c0.42-0.45,0.62-1.03,0.62-1.74c0-0.7-0.18-1.25-0.54-1.67s-0.85-0.63-1.46-0.63c-0.45,0-0.84,0.1-1.17,0.29
			c-0.33,0.19-0.5,0.41-0.5,0.66c0,0.1,0.08,0.16,0.23,0.2c0.72,0.17,1.08,0.48,1.08,0.9c0,0.56-0.29,0.84-0.87,0.84
			c-0.37,0-0.67-0.11-0.89-0.33c-0.22-0.22-0.34-0.51-0.34-0.87c0-0.59,0.25-1.08,0.76-1.48c0.51-0.4,1.21-0.6,2.12-0.6
			c1.04,0,1.83,0.27,2.38,0.8c0.55,0.54,0.82,1.16,0.82,1.87c0,0.98-0.46,1.71-1.39,2.18c-0.33,0.16-0.86,0.3-1.59,0.41v0.11
			c0.91,0.03,1.64,0.23,2.2,0.61C76.09,10.34,76.51,11.13,76.51,12.17z"/>
		<path d="M85.99,4.14c0,0.07-0.63,1.09-1.9,3.06c-0.71,1.11-1.2,1.98-1.46,2.61s-0.39,1.25-0.39,1.88c0,0.32,0.08,0.94,0.23,1.87
			c0.05,0.33,0.08,0.61,0.08,0.84c0,0.78-0.29,1.16-0.87,1.16c-0.69,0-1.03-0.6-1.03-1.79c0-1.1,0.51-2.56,1.52-4.36
			c0.64-1.14,1.48-2.46,2.51-3.97h-2.49c-1.29,0-2.03,0.01-2.23,0.02c-0.24,0.01-0.41,0.05-0.5,0.11c-0.09,0.07-0.16,0.16-0.2,0.27
			s-0.13,0.5-0.27,1.16c-0.04,0.13-0.11,0.2-0.2,0.2c-0.11,0-0.16-0.07-0.16-0.2c0-0.13,0.03-0.34,0.08-0.64
			c0.12-0.67,0.2-1.23,0.23-1.7c0.02-0.34,0.09-0.57,0.21-0.7c0.08,0,0.3,0.01,0.67,0.03c0.83,0.02,1.43,0.03,1.8,0.03h3.39
			c0.09,0,0.18-0.01,0.28-0.02c0.09,0,0.14,0,0.16,0C85.82,4.01,85.99,4.06,85.99,4.14z"/>
	</g>
</g>
</svg>
