<?xml version="1.0" encoding="UTF-8" standalone="no"?>
<!DOCTYPE svg PUBLIC "-//W3C//DTD SVG 1.1//EN" "http://www.w3.org/Graphics/SVG/1.1/DTD/svg11.dtd">
<svg width="100%" height="100%" viewBox="0 0 83 13" version="1.1" xmlns="http://www.w3.org/2000/svg" xmlns:xlink="http://www.w3.org/1999/xlink" xml:space="preserve" xmlns:serif="http://www.serif.com/" style="fill-rule:evenodd;clip-rule:evenodd;stroke-linejoin:round;stroke-miterlimit:2;">
    <g id="Artboard1" transform="matrix(0.992332,0,0,0.862268,-2.68644,-2.58753)">
        <rect x="2.707" y="3.001" width="83.523" height="14.075" style="fill:none;"/>
        <clipPath id="_clip1">
            <rect x="2.707" y="3.001" width="83.523" height="14.075"/>
        </clipPath>
        <g clip-path="url(#_clip1)">
            <g transform="matrix(1.00773,0,0,1.15973,-0.909042,-1.23672)">
                <g>
                    <path d="M14.11,4.14C14.11,4.25 13.97,4.3 13.7,4.29L13.05,4.29C12.88,4.29 12.77,4.32 12.74,4.38C12.71,4.44 12.69,4.62 12.69,4.93L12.69,14.35C12.69,14.93 12.68,15.27 12.67,15.36C12.66,15.46 12.63,15.51 12.57,15.51C12.5,15.51 12.43,15.45 12.34,15.33L10.25,12.26C9.04,10.47 7.56,8.24 5.82,5.56L5.82,14.74C5.83,14.88 5.91,14.97 6.07,15.01C6.23,15.05 6.59,15.07 7.18,15.08C7.32,15.08 7.4,15.12 7.4,15.21C7.4,15.32 7.26,15.37 6.97,15.37C6.87,15.37 6.56,15.35 6.04,15.32C5.86,15.31 5.7,15.3 5.53,15.3C5.54,15.3 5.45,15.31 5.24,15.33C5.04,15.35 4.73,15.36 4.31,15.36L4.15,15.36C3.9,15.36 3.77,15.31 3.77,15.21C3.77,15.11 3.88,15.06 4.1,15.06C4.74,15.05 5.12,15.01 5.22,14.94C5.32,14.87 5.38,14.64 5.38,14.24L5.38,6.18C5.38,5.27 5.19,4.7 4.82,4.47C4.64,4.36 4.33,4.31 3.89,4.31C3.61,4.31 3.46,4.25 3.46,4.14C3.46,4.04 3.54,3.99 3.71,3.99C3.93,3.99 4.21,4 4.55,4.02C4.89,4.04 5.07,4.05 5.09,4.05C5.12,4.05 5.28,4.04 5.55,4.03C5.91,4.03 6.26,4.01 6.6,3.98L12.25,12.42L12.25,5.13C12.25,4.79 12.24,4.59 12.23,4.52C12.22,4.45 12.18,4.39 12.1,4.36C12.02,4.32 11.76,4.3 11.31,4.3C10.92,4.3 10.72,4.25 10.72,4.15C10.72,4.04 10.85,3.99 11.11,3.99L13.74,3.99C13.99,3.98 14.11,4.03 14.11,4.14Z" style="fill-rule:nonzero;"/>
                    <path d="M23.45,14.81C23.45,14.89 23.33,14.93 23.09,14.94C22.24,14.99 21.49,15.18 20.84,15.5C20.8,15.52 20.76,15.53 20.73,15.53C20.66,15.53 20.63,15.49 20.63,15.4L20.63,14.48C20.13,15.18 19.43,15.53 18.53,15.53C17.73,15.53 17.15,15.3 16.81,14.83C16.67,14.63 16.58,14.46 16.56,14.29C16.53,14.13 16.52,13.69 16.52,12.97L16.52,9.25C16.52,8.87 16.5,8.65 16.45,8.58C16.41,8.52 16.26,8.48 16.01,8.47L15.8,8.47C15.51,8.49 15.36,8.45 15.36,8.34C15.36,8.26 15.45,8.23 15.64,8.23C15.84,8.23 16.12,8.24 16.49,8.27C16.68,8.28 16.78,8.29 16.82,8.29C17.2,8.29 17.56,8.27 17.89,8.22L17.89,12.77C17.89,13.61 17.94,14.16 18.05,14.43C18.22,14.85 18.58,15.07 19.11,15.07C19.69,15.07 20.11,14.83 20.39,14.35C20.59,14 20.68,13.45 20.68,12.69L20.68,10.16C20.68,9.79 20.66,9.51 20.63,9.33L20.63,8.79C20.62,8.63 20.58,8.53 20.52,8.5C20.46,8.47 20.34,8.46 20.15,8.46C19.69,8.47 19.46,8.42 19.46,8.31C19.46,8.25 19.57,8.21 19.8,8.21L22.03,8.21L22.03,12.78C22.03,13.57 22.05,14.06 22.08,14.27C22.11,14.48 22.2,14.6 22.33,14.63C22.46,14.66 22.77,14.68 23.25,14.68C23.38,14.7 23.45,14.73 23.45,14.81Z" style="fill-rule:nonzero;"/>
                    <path d="M35.77,15.28C35.77,15.36 35.68,15.4 35.49,15.4L32.54,15.4C32.4,15.4 32.33,15.36 32.33,15.29C32.33,15.21 32.39,15.17 32.51,15.17L33.05,15.17C33.21,15.16 33.31,15.12 33.34,15.06C33.37,14.99 33.38,14.76 33.38,14.37L33.38,10.3C33.38,9.67 33.3,9.21 33.13,8.95C32.96,8.68 32.68,8.55 32.28,8.55C32,8.55 31.73,8.63 31.49,8.8C31.25,8.97 31.07,9.18 30.98,9.45C30.94,9.61 30.91,10.22 30.91,11.27L30.91,14.37C30.91,14.73 30.92,14.94 30.93,14.99C30.96,15.12 31.06,15.19 31.22,15.19L31.69,15.19C31.83,15.19 31.9,15.23 31.9,15.31C31.9,15.38 31.82,15.42 31.65,15.42L28.71,15.42C28.58,15.42 28.51,15.38 28.51,15.29C28.51,15.24 28.54,15.2 28.61,15.19C28.68,15.18 28.89,15.17 29.27,15.17C29.44,15.16 29.54,15.1 29.55,15.01L29.57,14.78L29.57,10.2C29.57,9.57 29.49,9.13 29.33,8.89C29.17,8.65 28.89,8.53 28.49,8.53C28.09,8.53 27.75,8.66 27.49,8.91C27.22,9.16 27.09,9.48 27.09,9.86L27.09,14.5C27.09,14.83 27.11,15.02 27.16,15.08C27.21,15.14 27.37,15.17 27.64,15.17L27.77,15.17C27.83,15.16 27.89,15.15 27.95,15.15C28.07,15.15 28.13,15.19 28.13,15.28C28.13,15.36 28.06,15.39 27.92,15.39L27.76,15.39C27.5,15.38 27.09,15.38 26.53,15.39L24.92,15.39C24.77,15.39 24.69,15.35 24.69,15.26C24.69,15.18 24.76,15.15 24.9,15.15C25.32,15.15 25.56,15.13 25.62,15.09C25.69,15.05 25.72,14.98 25.73,14.89L25.73,10.64C25.73,9.82 25.71,9.34 25.68,9.2C25.65,9.06 25.49,8.99 25.2,8.99L24.66,8.99C24.52,8.99 24.45,8.95 24.45,8.88C24.45,8.81 24.47,8.78 24.52,8.77C24.57,8.76 24.75,8.74 25.05,8.72C25.3,8.71 25.62,8.64 25.99,8.52C26.37,8.4 26.58,8.3 26.64,8.21C26.76,8.09 26.85,8.03 26.9,8.03C26.95,8.03 26.99,8.07 27,8.16C27.01,8.25 27.02,8.55 27.03,9.08C27.47,8.38 28.14,8.03 29.05,8.03C30.02,8.03 30.61,8.4 30.82,9.13C31.25,8.4 31.93,8.03 32.87,8.03C33.68,8.03 34.23,8.32 34.51,8.9C34.66,9.21 34.74,9.71 34.74,10.42L34.74,14.47C34.74,14.84 34.76,15.05 34.8,15.08C34.84,15.12 35.01,15.15 35.31,15.17L35.6,15.17C35.71,15.16 35.77,15.2 35.77,15.28Z" style="fill-rule:nonzero;"/>
                    <path d="M43.34,13.58C43.34,13.69 43.26,13.88 43.09,14.16C42.92,14.44 42.75,14.67 42.57,14.84C42.1,15.32 41.47,15.56 40.69,15.56C39.71,15.56 38.88,15.21 38.22,14.49C37.56,13.78 37.23,12.9 37.23,11.85C37.23,10.76 37.54,9.85 38.17,9.11C38.8,8.37 39.58,8.01 40.52,8.01C41.3,8.01 41.95,8.24 42.47,8.69C42.99,9.14 43.27,9.73 43.3,10.44C42.95,10.49 42.49,10.52 41.91,10.51L40.76,10.51C40.68,10.51 40.03,10.53 38.79,10.56C38.74,10.92 38.71,11.26 38.71,11.59C38.71,12.69 38.92,13.54 39.34,14.13C39.76,14.72 40.35,15.02 41.12,15.02C41.56,15.02 41.91,14.92 42.17,14.73C42.43,14.53 42.72,14.16 43.02,13.6C43.06,13.51 43.12,13.47 43.2,13.47C43.3,13.47 43.34,13.51 43.34,13.58ZM41.92,10.24C41.88,8.93 41.41,8.27 40.51,8.27C39.63,8.27 39.07,8.93 38.85,10.24L41.92,10.24Z" style="fill-rule:nonzero;"/>
                    <path d="M50.24,9.17C50.24,9.42 50.16,9.63 50.01,9.79C49.86,9.95 49.66,10.04 49.42,10.04C49.22,10.04 49.06,9.98 48.93,9.87C48.8,9.76 48.73,9.61 48.73,9.44C48.73,9.29 48.78,9.16 48.88,9.05C48.98,8.94 49.03,8.86 49.03,8.82C49.03,8.66 48.91,8.57 48.67,8.57C48.36,8.57 48.1,8.76 47.88,9.14C47.63,9.59 47.5,10.41 47.5,11.62L47.5,14.85C47.5,14.98 47.55,15.06 47.64,15.09C47.73,15.12 48.01,15.14 48.48,15.16C48.6,15.18 48.66,15.23 48.66,15.29C48.66,15.37 48.59,15.4 48.45,15.4L45.26,15.4C45.09,15.4 45,15.37 45,15.3C45,15.23 45.07,15.2 45.21,15.2L45.44,15.2C45.81,15.2 46.03,15.16 46.1,15.07C46.12,15.03 46.13,14.82 46.13,14.46L46.13,9.93C46.13,9.33 46.04,8.98 45.86,8.88C45.68,8.79 45.39,8.73 45,8.72C44.87,8.72 44.8,8.68 44.8,8.61C44.8,8.53 44.85,8.5 44.96,8.5L45.07,8.5C45.23,8.5 45.4,8.51 45.56,8.52C45.72,8.54 45.79,8.54 45.77,8.54C46.17,8.54 46.62,8.43 47.11,8.2L47.32,8.1L47.45,8.05C47.49,8.31 47.52,8.57 47.52,8.84L47.52,9.17C47.87,8.43 48.36,8.06 48.99,8.06C49.34,8.06 49.63,8.17 49.86,8.38C50.09,8.59 50.24,8.86 50.24,9.17Z" style="fill-rule:nonzero;"/>
                    <path d="M58.58,11.83C58.58,12.89 58.26,13.78 57.61,14.49C56.96,15.2 56.16,15.56 55.2,15.56C54.21,15.56 53.38,15.2 52.71,14.49C52.04,13.77 51.71,12.89 51.71,11.83C51.71,10.74 52.04,9.83 52.69,9.11C53.34,8.39 54.15,8.03 55.12,8.03C56.1,8.03 56.93,8.39 57.59,9.12C58.25,9.84 58.58,10.75 58.58,11.83ZM57.09,11.81C57.09,10.61 56.9,9.67 56.53,9.01C56.26,8.52 55.8,8.27 55.15,8.27C54.54,8.27 54.06,8.58 53.72,9.21C53.38,9.84 53.2,10.71 53.2,11.82C53.2,12.92 53.38,13.78 53.75,14.4C54.12,15.02 54.63,15.33 55.28,15.33C55.78,15.33 56.15,15.14 56.39,14.76C56.86,14.04 57.09,13.06 57.09,11.81Z" style="fill-rule:nonzero;"/>
                    <path d="M68.12,12.29C68.12,12.32 68.11,12.41 68.09,12.55C68.04,12.91 67.95,13.8 67.83,15.22L67.81,15.42C66.69,15.37 65.4,15.34 63.96,15.34C63.18,15.34 62.46,15.35 61.78,15.38C61.1,15.41 60.81,15.42 60.9,15.42C60.61,15.42 60.46,15.37 60.46,15.26C60.46,15.17 60.74,14.9 61.31,14.44C62.68,13.32 63.65,12.42 64.23,11.72C65.23,10.51 65.74,9.08 65.74,7.44C65.74,6.34 65.51,5.5 65.05,4.93C64.7,4.49 64.21,4.27 63.57,4.27C62.95,4.27 62.46,4.46 62.1,4.84C61.82,5.13 61.67,5.43 61.67,5.72C61.67,5.91 61.82,6 62.11,6.01C62.87,6.04 63.26,6.38 63.26,7.01C63.26,7.61 62.94,7.91 62.31,7.91C61.91,7.91 61.58,7.79 61.34,7.53C61.1,7.28 60.98,6.93 60.98,6.5C60.98,5.69 61.26,5.04 61.83,4.55C62.4,4.06 63.15,3.81 64.08,3.81C65.01,3.81 65.78,4.1 66.39,4.69C67.1,5.38 67.46,6.27 67.46,7.38C67.46,8.59 67.06,9.71 66.25,10.73C65.44,11.75 64.08,12.86 62.17,14.06C62.89,14.04 63.8,14.03 64.89,14.03C65.8,14.03 66.37,14.02 66.61,13.99C66.85,13.96 67.06,13.89 67.25,13.79C67.4,13.69 67.53,13.33 67.64,12.69C67.72,12.25 67.83,12.03 67.97,12.03C68.06,12.04 68.12,12.12 68.12,12.29Z" style="fill-rule:nonzero;"/>
                    <path d="M76.51,12.17C76.51,13.08 76.14,13.85 75.41,14.5C74.6,15.21 73.57,15.57 72.31,15.57C71.28,15.57 70.53,15.33 70.05,14.85C69.74,14.54 69.59,14.19 69.59,13.8C69.59,13.46 69.7,13.19 69.91,12.99C70.12,12.79 70.41,12.69 70.77,12.69C71.05,12.69 71.29,12.77 71.48,12.94C71.67,13.11 71.76,13.31 71.76,13.57C71.76,13.96 71.5,14.26 70.99,14.48C70.78,14.57 70.68,14.66 70.68,14.74C70.68,14.88 70.82,15.01 71.11,15.13C71.39,15.25 71.7,15.3 72.04,15.3C72.87,15.3 73.54,15.02 74.06,14.45C74.58,13.88 74.84,13.14 74.84,12.22C74.84,10.37 74.01,9.44 72.35,9.44L71.87,9.44C71.73,9.44 71.66,9.39 71.66,9.29C71.66,9.21 71.79,9.15 72.05,9.11C72.81,9 73.4,8.72 73.82,8.27C74.24,7.82 74.44,7.24 74.44,6.53C74.44,5.83 74.26,5.28 73.9,4.86C73.54,4.44 73.05,4.23 72.44,4.23C71.99,4.23 71.6,4.33 71.27,4.52C70.94,4.71 70.77,4.93 70.77,5.18C70.77,5.28 70.85,5.34 71,5.38C71.72,5.55 72.08,5.86 72.08,6.28C72.08,6.84 71.79,7.12 71.21,7.12C70.84,7.12 70.54,7.01 70.32,6.79C70.1,6.57 69.98,6.28 69.98,5.92C69.98,5.33 70.23,4.84 70.74,4.44C71.25,4.04 71.95,3.84 72.86,3.84C73.9,3.84 74.69,4.11 75.24,4.64C75.79,5.18 76.06,5.8 76.06,6.51C76.06,7.49 75.6,8.22 74.67,8.69C74.34,8.85 73.81,8.99 73.08,9.1L73.08,9.21C73.99,9.24 74.72,9.44 75.28,9.82C76.09,10.34 76.51,11.13 76.51,12.17Z" style="fill-rule:nonzero;"/>
                    <path d="M85.99,4.14C85.99,4.21 85.36,5.23 84.09,7.2C83.38,8.31 82.89,9.18 82.63,9.81C82.37,10.44 82.24,11.06 82.24,11.69C82.24,12.01 82.32,12.63 82.47,13.56C82.52,13.89 82.55,14.17 82.55,14.4C82.55,15.18 82.26,15.56 81.68,15.56C80.99,15.56 80.65,14.96 80.65,13.77C80.65,12.67 81.16,11.21 82.17,9.41C82.81,8.27 83.65,6.95 84.68,5.44L82.19,5.44C80.9,5.44 80.16,5.45 79.96,5.46C79.72,5.47 79.55,5.51 79.46,5.57C79.37,5.64 79.3,5.73 79.26,5.84C79.22,5.95 79.13,6.34 78.99,7C78.95,7.13 78.88,7.2 78.79,7.2C78.68,7.2 78.63,7.13 78.63,7C78.63,6.87 78.66,6.66 78.71,6.36C78.83,5.69 78.91,5.13 78.94,4.66C78.96,4.32 79.03,4.09 79.15,3.96C79.23,3.96 79.45,3.97 79.82,3.99C80.65,4.01 81.25,4.02 81.62,4.02L85.01,4.02C85.1,4.02 85.19,4.01 85.29,4L85.45,4C85.82,4.01 85.99,4.06 85.99,4.14Z" style="fill-rule:nonzero;"/>
                </g>
            </g>
        </g>
    </g>
</svg>
